<svg width="532" height="158" viewBox="0 0 532 158" fill="none" xmlns="http://www.w3.org/2000/svg">
<rect y="5.39136" width="424.775" height="146.217" fill="#97D8FC" fill-opacity="0.8"/>
<path d="M532 43L424 80.2391V5.76091L532 43Z" fill="#97D8FC" fill-opacity="0.8"/>
<path d="M532 116L424 152.373V79.6269L532 116Z" fill="#97D8FC" fill-opacity="0.8"/>
<path d="M45.775 97.295C44.485 97.295 43.57 97.115 43.03 96.755C42.52 96.395 42.265 95.87 42.265 95.18C42.265 94.58 42.475 94.07 42.895 93.65C43.315 93.2 44.245 92.75 45.685 92.3C47.365 91.79 48.955 91.205 50.455 90.545C51.985 89.855 53.23 89.105 54.19 88.295C55.18 87.485 55.675 86.63 55.675 85.73C55.675 85.13 55.465 84.695 55.045 84.425C54.655 84.155 54.19 84.02 53.65 84.02C53.2 84.02 52.54 84.095 51.67 84.245C50.83 84.365 49.9 84.53 48.88 84.74C47.86 84.92 46.87 85.085 45.91 85.235C44.98 85.355 44.185 85.415 43.525 85.415C41.965 85.415 40.81 85.07 40.06 84.38C39.31 83.66 38.935 82.745 38.935 81.635C38.935 81.035 39.25 80.21 39.88 79.16C40.51 78.11 41.35 76.955 42.4 75.695C43.45 74.435 44.62 73.175 45.91 71.915C47.2 70.655 48.505 69.5 49.825 68.45C51.175 67.37 52.45 66.515 53.65 65.885C54.85 65.225 55.87 64.895 56.71 64.895C57.67 64.895 58.435 65.195 59.005 65.795C59.605 66.395 59.905 67.205 59.905 68.225C59.905 68.705 59.86 69.23 59.77 69.8C59.68 70.34 59.455 70.835 59.095 71.285C58.735 71.705 58.18 72.005 57.43 72.185C56.68 72.365 55.66 72.335 54.37 72.095C53.35 72.845 52.285 73.67 51.175 74.57C50.095 75.44 49.075 76.355 48.115 77.315C47.155 78.245 46.36 79.16 45.73 80.06C46.84 79.7 48.1 79.415 49.51 79.205C50.92 78.965 52.345 78.845 53.785 78.845C55.525 78.845 56.935 79.16 58.015 79.79C59.125 80.39 59.935 81.2 60.445 82.22C60.985 83.24 61.255 84.365 61.255 85.595C61.255 86.975 60.805 88.355 59.905 89.735C59.005 91.115 57.805 92.375 56.305 93.515C54.805 94.655 53.14 95.57 51.31 96.26C49.48 96.95 47.635 97.295 45.775 97.295ZM88.203 74.615C88.203 75.995 87.738 77.39 86.808 78.8C85.878 80.21 84.378 81.575 82.308 82.895C80.268 84.215 77.568 85.46 74.208 86.63C74.388 88.22 74.958 89.36 75.918 90.05C76.908 90.71 78.483 91.04 80.643 91.04C82.593 91.04 84.423 90.845 86.133 90.455C87.873 90.035 89.493 89.48 90.993 88.79C90.573 87.77 90.258 86.675 90.048 85.505C89.838 84.305 89.733 83.03 89.733 81.68C89.733 78.95 90.168 76.67 91.038 74.84C91.908 73.01 93.003 71.645 94.323 70.745C95.643 69.815 96.993 69.35 98.373 69.35C99.633 69.35 100.788 69.59 101.838 70.07C102.918 70.55 103.773 71.285 104.403 72.275C105.063 73.235 105.393 74.48 105.393 76.01C105.393 78.44 104.658 80.81 103.188 83.12C101.748 85.43 99.858 87.515 97.518 89.375C98.388 90.215 99.423 90.635 100.623 90.635C101.703 90.635 102.903 90.35 104.223 89.78C105.543 89.21 106.878 88.46 108.228 87.53C109.608 86.57 110.943 85.55 112.233 84.47C113.523 83.36 114.663 82.295 115.653 81.275C116.013 80.825 116.358 80.54 116.688 80.42C117.048 80.27 117.378 80.195 117.678 80.195C118.188 80.195 118.608 80.36 118.938 80.69C119.268 80.99 119.433 81.425 119.433 81.995C119.433 82.265 119.358 82.595 119.208 82.985C119.058 83.375 118.788 83.795 118.398 84.245C117.288 85.445 115.968 86.735 114.438 88.115C112.938 89.465 111.348 90.74 109.668 91.94C107.988 93.14 106.323 94.115 104.673 94.865C103.023 95.615 101.493 95.99 100.083 95.99C97.323 95.99 94.968 94.79 93.018 92.39C90.978 93.5 88.833 94.37 86.583 95C84.363 95.66 82.173 95.99 80.013 95.99C76.203 95.99 73.398 95.12 71.598 93.38C69.798 91.64 68.898 89.27 68.898 86.27C68.898 83.48 69.258 80.915 69.978 78.575C70.698 76.205 71.643 74.165 72.813 72.455C73.983 70.715 75.243 69.365 76.593 68.405C77.973 67.445 79.308 66.965 80.598 66.965C83.148 66.965 85.053 67.7 86.313 69.17C87.573 70.64 88.203 72.455 88.203 74.615ZM74.478 82.265C76.008 81.515 77.433 80.675 78.753 79.745C80.103 78.815 81.183 77.87 81.993 76.91C82.833 75.95 83.253 75.05 83.253 74.21C83.253 73.43 83.088 72.83 82.758 72.41C82.428 71.99 81.783 71.78 80.823 71.78C80.223 71.78 79.593 72.095 78.933 72.725C78.303 73.325 77.688 74.135 77.088 75.155C76.518 76.175 75.993 77.3 75.513 78.53C75.063 79.76 74.718 81.005 74.478 82.265ZM95.583 85.685C97.143 84.275 98.343 82.7 99.183 80.96C100.053 79.19 100.488 77.36 100.488 75.47C100.488 75.26 100.338 74.99 100.038 74.66C99.768 74.3 99.363 74.12 98.823 74.12C98.013 74.12 97.323 74.435 96.753 75.065C96.183 75.695 95.748 76.52 95.448 77.54C95.178 78.53 95.043 79.61 95.043 80.78C95.043 82.67 95.223 84.305 95.583 85.685ZM176.638 93.965C176.458 95.585 175.498 96.395 173.758 96.395C172.858 96.395 172.138 96.125 171.598 95.585C171.088 95.045 170.833 94.265 170.833 93.245C170.833 91.505 170.908 89.645 171.058 87.665C171.238 85.655 171.448 83.63 171.688 81.59C171.958 79.55 172.213 77.6 172.453 75.74C171.373 77.3 170.233 78.905 169.033 80.555C167.833 82.205 166.633 83.81 165.433 85.37C164.233 86.93 163.078 88.34 161.968 89.6C160.888 90.83 159.898 91.82 158.998 92.57C158.098 93.29 157.348 93.65 156.748 93.65C155.308 93.65 154.063 93.125 153.013 92.075C151.963 90.995 151.438 89.63 151.438 87.98C151.438 87.41 151.498 86.645 151.618 85.685C151.738 84.695 151.888 83.645 152.068 82.535C152.248 81.425 152.398 80.375 152.518 79.385C152.638 78.395 152.698 77.615 152.698 77.045C152.698 77.045 152.698 77.015 152.698 76.955C152.728 76.805 152.698 76.73 152.608 76.73C152.488 76.73 152.158 77.135 151.618 77.945C151.078 78.725 150.418 79.745 149.638 81.005C148.858 82.265 148.033 83.585 147.163 84.965C146.323 86.345 145.528 87.635 144.778 88.835C144.058 90.035 143.458 90.965 142.978 91.625C142.318 92.645 141.703 93.29 141.133 93.56C140.563 93.83 139.903 93.965 139.153 93.965C138.103 93.965 137.278 93.62 136.678 92.93C136.108 92.21 135.823 91.205 135.823 89.915C135.823 89.375 135.913 88.535 136.093 87.395C136.303 86.255 136.558 84.995 136.858 83.615C137.158 82.205 137.458 80.84 137.758 79.52C138.088 78.17 138.373 77.03 138.613 76.1C138.883 74.87 139.258 74.015 139.738 73.535C140.248 73.025 140.893 72.77 141.673 72.77C143.503 72.77 144.418 73.67 144.418 75.47C144.418 75.8 144.313 76.34 144.103 77.09C143.893 77.84 143.638 78.71 143.338 79.7C143.038 80.69 142.723 81.71 142.393 82.76C142.063 83.78 141.793 84.74 141.583 85.64C142.303 84.38 143.083 83.03 143.923 81.59C144.763 80.15 145.618 78.74 146.488 77.36C147.388 75.98 148.273 74.72 149.143 73.58C150.043 72.44 150.928 71.54 151.798 70.88C152.668 70.19 153.493 69.845 154.273 69.845C155.053 69.845 155.818 70.13 156.568 70.7C157.318 71.24 157.933 71.945 158.413 72.815C158.923 73.655 159.178 74.555 159.178 75.515C159.178 76.415 159.058 77.495 158.818 78.755C158.578 80.015 158.308 81.335 158.008 82.715C157.708 84.095 157.498 85.445 157.378 86.765C158.398 85.625 159.478 84.335 160.618 82.895C161.758 81.425 162.928 79.91 164.128 78.35C165.328 76.79 166.498 75.275 167.638 73.805C168.808 72.335 169.888 71 170.878 69.8C171.898 68.6 172.798 67.655 173.578 66.965C174.358 66.245 174.958 65.885 175.378 65.885C176.608 65.885 177.568 66.215 178.258 66.875C178.978 67.505 179.338 68.615 179.338 70.205C179.338 71.195 179.263 72.485 179.113 74.075C178.993 75.665 178.813 77.39 178.573 79.25C178.363 81.08 178.123 82.94 177.853 84.83C177.613 86.69 177.388 88.415 177.178 90.005C176.968 91.595 176.788 92.915 176.638 93.965ZM192.842 96.485C190.712 96.485 189.002 95.735 187.712 94.235C186.422 92.705 185.777 90.665 185.777 88.115C185.777 87.305 185.882 86.48 186.092 85.64C186.332 84.8 186.617 84.02 186.947 83.3C186.767 83.03 186.617 82.685 186.497 82.265C186.407 81.815 186.362 81.29 186.362 80.69C186.362 78.74 186.707 76.955 187.397 75.335C188.087 73.685 189.017 72.26 190.187 71.06C191.357 69.86 192.647 68.93 194.057 68.27C195.467 67.61 196.892 67.28 198.332 67.28C200.792 67.28 202.802 68.105 204.362 69.755C205.952 71.405 206.747 73.97 206.747 77.45C206.747 79.19 206.477 80.96 205.937 82.76C205.397 84.56 204.662 86.285 203.732 87.935C202.832 89.555 201.782 91.01 200.582 92.3C199.412 93.59 198.152 94.61 196.802 95.36C195.482 96.11 194.162 96.485 192.842 96.485ZM192.122 81.275C192.272 81.605 192.347 81.995 192.347 82.445C192.347 82.895 192.257 83.36 192.077 83.84C191.897 84.32 191.717 84.965 191.537 85.775C191.357 86.555 191.267 87.68 191.267 89.15C191.267 89.54 191.312 89.87 191.402 90.14C191.522 90.38 191.777 90.5 192.167 90.5C193.187 90.5 194.147 90.17 195.047 89.51C195.977 88.85 196.802 87.98 197.522 86.9C198.272 85.82 198.902 84.62 199.412 83.3C199.952 81.95 200.357 80.585 200.627 79.205C200.927 77.795 201.077 76.49 201.077 75.29C201.077 74.51 200.927 73.97 200.627 73.67C200.327 73.37 199.802 73.22 199.052 73.22C198.032 73.22 196.982 73.55 195.902 74.21C194.852 74.84 193.967 75.71 193.247 76.82C192.527 77.9 192.167 79.13 192.167 80.51C192.167 80.78 192.152 81.035 192.122 81.275ZM213.725 96.98C212.975 96.98 212.33 96.71 211.79 96.17C211.28 95.63 211.025 94.85 211.025 93.83C211.025 93.38 211.085 92.645 211.205 91.625C211.355 90.575 211.535 89.375 211.745 88.025C211.985 86.675 212.21 85.265 212.42 83.795C212.66 82.325 212.855 80.93 213.005 79.61C213.185 78.29 213.305 77.165 213.365 76.235C213.425 75.095 213.725 74.285 214.265 73.805C214.805 73.295 215.45 73.04 216.2 73.04C216.8 73.04 217.34 73.19 217.82 73.49C218.33 73.76 218.645 74.345 218.765 75.245C218.915 76.115 218.93 77.375 218.81 79.025C220.13 76.625 221.465 74.48 222.815 72.59C224.195 70.7 225.635 69.2 227.135 68.09C229.625 66.2 231.875 65.255 233.885 65.255C235.025 65.255 235.775 65.51 236.135 66.02C236.495 66.53 236.675 67.055 236.675 67.595C236.675 67.955 236.585 68.285 236.405 68.585C236.255 68.885 235.925 69.2 235.415 69.53C234.905 69.86 234.125 70.295 233.075 70.835C231.665 71.555 230.27 72.5 228.89 73.67C227.54 74.84 226.19 76.34 224.84 78.17C223.49 80 222.125 82.25 220.745 84.92C219.365 87.59 217.94 90.77 216.47 94.46C216.2 95.48 215.81 96.155 215.3 96.485C214.82 96.815 214.295 96.98 213.725 96.98ZM240.144 96.53C238.284 96.53 236.784 95.885 235.644 94.595C234.504 93.275 233.934 91.16 233.934 88.25C233.934 86.39 234.144 84.53 234.564 82.67C235.014 80.78 235.629 78.995 236.409 77.315C237.219 75.605 238.149 74.09 239.199 72.77C240.279 71.45 241.464 70.415 242.754 69.665C244.044 68.885 245.379 68.495 246.759 68.495C249.099 68.495 250.929 69.125 252.249 70.385C253.569 71.645 254.229 73.25 254.229 75.2C254.229 76.7 253.809 78.065 252.969 79.295C252.159 80.495 251.049 81.575 249.639 82.535C248.229 83.495 246.654 84.365 244.914 85.145C243.174 85.925 241.389 86.63 239.559 87.26C239.409 88.34 239.334 89.3 239.334 90.14C239.334 90.65 239.619 90.905 240.189 90.905C241.539 90.905 242.979 90.695 244.509 90.275C246.069 89.825 247.644 89.255 249.234 88.565C250.824 87.845 252.354 87.11 253.824 86.36C255.294 85.58 256.629 84.845 257.829 84.155C259.059 83.435 260.064 82.865 260.844 82.445C261.654 81.995 262.179 81.77 262.419 81.77C263.079 81.77 263.559 81.965 263.859 82.355C264.159 82.745 264.309 83.165 264.309 83.615C264.309 83.825 263.904 84.29 263.094 85.01C262.314 85.73 261.234 86.585 259.854 87.575C258.504 88.535 256.974 89.54 255.264 90.59C253.584 91.61 251.829 92.585 249.999 93.515C248.199 94.415 246.444 95.135 244.734 95.675C243.054 96.245 241.524 96.53 240.144 96.53ZM240.324 83.255C241.554 82.535 242.769 81.785 243.969 81.005C245.199 80.195 246.219 79.295 247.029 78.305C247.839 77.285 248.244 76.1 248.244 74.75C248.244 74.36 248.139 74.105 247.929 73.985C247.719 73.835 247.419 73.76 247.029 73.76C245.979 73.76 245.019 74.225 244.149 75.155C243.309 76.085 242.559 77.285 241.899 78.755C241.269 80.195 240.744 81.695 240.324 83.255ZM269.573 84.74C269.153 84.74 268.778 84.575 268.448 84.245C268.148 83.885 267.998 83.24 267.998 82.31C267.998 81.65 268.118 80.615 268.358 79.205C268.598 77.795 268.928 76.175 269.348 74.345C269.798 72.485 270.308 70.55 270.878 68.54C271.448 66.5 272.063 64.505 272.723 62.555C273.383 60.575 274.058 58.79 274.748 57.2C275.078 56.42 275.588 55.835 276.278 55.445C276.998 55.025 277.778 54.815 278.618 54.815C279.488 54.815 280.118 55.22 280.508 56.03C280.898 56.84 281.093 57.725 281.093 58.685C281.093 59.045 280.913 59.72 280.553 60.71C280.223 61.7 279.773 62.9 279.203 64.31C278.633 65.72 278.003 67.25 277.313 68.9C276.653 70.52 275.978 72.17 275.288 73.85C274.628 75.5 274.013 77.075 273.443 78.575C272.873 80.075 272.408 81.395 272.048 82.535C271.808 83.345 271.478 83.915 271.058 84.245C270.668 84.575 270.173 84.74 269.573 84.74ZM267.233 97.295C266.873 97.295 266.453 97.205 265.973 97.025C265.493 96.845 265.073 96.41 264.713 95.72C264.383 95.06 264.218 93.995 264.218 92.525C264.218 91.385 264.578 90.515 265.298 89.915C266.018 89.315 266.978 89.015 268.178 89.015C269.198 89.015 269.978 89.3 270.518 89.87C271.088 90.44 271.373 91.25 271.373 92.3C271.373 93.26 271.133 94.115 270.653 94.865C270.203 95.615 269.648 96.2 268.988 96.62C268.358 97.07 267.773 97.295 267.233 97.295Z" fill="black"/>
</svg>
