<svg width="700" height="90" viewBox="0 0 700 90" fill="none" xmlns="http://www.w3.org/2000/svg">
<path d="M29.9883 13.1447C23.2353 24.724 10.537 46.5301 10.0407 50.4175C8.42654 63.0619 46.7832 40.7599 58.3333 31.3408C60.58 29.5086 61.7487 28.0908 59.1993 31.6035C56.6499 35.1162 50.2278 43.465 47.8827 47.6054C45.9892 50.9484 67.1103 38.8917 92.7454 21.5275C100.61 16.2003 98.4718 18.6132 94.1028 25.3906C89.7337 32.1679 83.3116 43.4066 80.6454 49.3568C77.9793 55.3071 79.2637 55.6282 82.3337 54.5092C90.5135 51.5276 108.669 37.578 127.98 22.8071C133.671 18.4538 131.556 21.2016 129.595 24.1305C120.775 37.3051 114.333 48.7973 113.992 52.2079C113.866 53.4663 118.147 52.0863 130.719 45.1678C165.481 26.0376 186.017 14.0983 181.979 19.2652C176.083 26.81 169.495 38.697 166.23 48.7584C158.33 73.108 221.378 29.998 217.17 32.7468C213.23 35.3202 204.564 47.4253 194.016 62.5077C190.563 67.4448 192.138 67.6356 197.616 64.5851C203.094 61.5346 212.728 55.4336 224.755 48.7584C236.781 42.0833 250.91 35.0189 256.423 32.8247C264.752 29.5092 242.464 53.3123 239.856 60.6151C238.914 63.2528 260.446 50.2277 285.887 33.209C299.579 24.0492 305.674 21.9119 307.138 20.934C319.837 12.4538 278.487 58.5084 274.39 64.2154C273.903 64.8938 275.82 65.3587 277.445 65.203C279.07 65.0473 280.997 64.4051 291.141 57.9732C319.861 39.763 340.052 26.1252 341.681 25.4733C346.108 23.7028 328.462 39.6409 318.722 54.4021C316.392 57.934 337.94 44.4186 365.828 23.6634C375.684 16.3279 377.018 15.7525 377.037 15.7427C381.199 13.662 367.988 26.0668 355.523 44.5354C352.673 48.7589 351.446 51.3662 351.748 53.0106C352.324 56.1511 369.126 50.1791 392.606 39.3344C410.474 31.0816 418.548 24.8311 419.852 23.6926C423.086 20.8685 409.849 32.8879 404.964 38.7311C402.697 41.4434 426.206 30.4164 448.571 17.7716C457.036 12.9858 460.019 12.1911 460.866 12.1765C465.54 12.0959 446.864 31.1851 440.626 41.3438C439.864 42.5861 439.332 43.9321 439.644 44.9149C439.955 45.8977 441.239 46.5399 443.507 46.5496C459.122 46.6166 479.461 34.5908 488.121 28.5676C488.819 28.0824 486.389 27.7405 484.594 28.3827C480.913 29.6992 468.942 38.0548 450.8 49.5515C438.517 57.3347 433.494 62.4395 432.832 62.9309C426.129 67.909 447.078 55.9785 450.167 53.0593C451.236 52.0494 427.84 62.9845 406.511 74.3886C390.748 82.8166 440.276 53.3707 438.695 54.806C435.878 57.3627 427.48 61.7 422.382 64.9841C417.283 68.2681 415.356 69.8737 427.368 65.2419C439.381 60.6102 465.39 49.6926 479.432 43.9078C493.473 38.123 494.757 37.8019 493.492 38.9209C488.767 43.1007 478.624 50.072 472.275 56.7277C469.318 59.8271 498.182 48.5735 525.73 35.9384C536.685 30.9135 541.075 27.7989 541.464 27.2734C548.037 18.3991 525.613 37.1402 526.231 37.1499C551.388 37.5463 570.334 18.6716 568.763 21.8632C559.848 39.9695 543.77 48.1649 544.719 49.1428C549.45 54.0199 564.116 43.6694 576.596 37.6753C581.437 35.3502 582.974 33.9291 577.058 40.974C557.972 63.7016 542.476 79.9545 543.42 79.6431C551.728 76.9022 562.842 69.2995 574.484 59.6031C598.175 39.872 603.428 33.9096 604.732 33.2577C605.997 32.6252 599.896 34.2307 595.848 33.4231C594.019 33.0582 592.763 32.2944 593.386 31.6424C604.479 20.029 633.884 24.8408 640.073 22.559C642.933 21.5044 645.59 19.6349 648.183 19.9512C650.761 20.2656 648.538 25.1327 649.482 25.4733C657.969 28.5354 667.62 14.7989 673.624 10.7364C683.301 4.18838 653.744 43.251 650.329 50.5634C649.643 52.0313 651.73 49.206 651.438 48.1989C648.853 39.2799 633.952 56.9223 629.905 58.3819C628.148 59.0153 626.82 58.8782 626.801 57.9148C626.737 54.7608 633.242 49.5077 642.773 42.8715C661.946 29.5219 673.449 39.7285 682.556 39.4268C684.192 39.3727 683.88 36.5369 683.559 37.3104C681.867 41.3855 680.97 48.4665 679.992 52.8501C680.941 53.0593 682.897 50.7824 684.999 48.3546C686.137 47.2113 687.422 46.2479 689.718 44.2824" stroke="#97D8FC" stroke-opacity="0.8" stroke-width="20" stroke-linecap="round"/>
</svg>
